<mxfile host="65bd71144e">
    <diagram id="6EXt89o7fHejoy0miyVt" name="Page-1">
        <mxGraphModel dx="927" dy="667" grid="1" gridSize="10" guides="1" tooltips="1" connect="1" arrows="1" fold="1" page="1" pageScale="1" pageWidth="850" pageHeight="1100" math="0" shadow="0">
            <root>
                <mxCell id="0"/>
                <mxCell id="1" parent="0"/>
                <mxCell id="53" value="" style="rounded=0;whiteSpace=wrap;html=1;fontFamily=JetBrains Mono;fontSource=https%3A%2F%2Ffonts.googleapis.com%2Fcss%3Ffamily%3DJetBrains%2BMono;fontSize=14;fillColor=#FFFFFF;strokeColor=none;" parent="1" vertex="1">
                    <mxGeometry x="10" y="30" width="720" height="360" as="geometry"/>
                </mxCell>
                <mxCell id="2" value="" style="rounded=1;whiteSpace=wrap;html=1;fillColor=#e7e9f5;strokeColor=#e7e9f5;arcSize=5;strokeWidth=2;fontFamily=JetBrains Mono;fontSource=https%3A%2F%2Ffonts.googleapis.com%2Fcss%3Ffamily%3DJetBrains%2BMono;fillStyle=auto;" parent="1" vertex="1">
                    <mxGeometry x="200" y="40" width="160" height="160" as="geometry"/>
                </mxCell>
                <mxCell id="5" value="Node 1" style="text;html=1;strokeColor=none;fillColor=none;align=left;verticalAlign=middle;whiteSpace=wrap;rounded=0;fontColor=default;strokeWidth=2;fontFamily=JetBrains Mono;fontSource=https%3A%2F%2Ffonts.googleapis.com%2Fcss%3Ffamily%3DJetBrains%2BMono;fontSize=14;fontStyle=1;" parent="1" vertex="1">
                    <mxGeometry x="210" y="49" width="60" height="20" as="geometry"/>
                </mxCell>
                <mxCell id="39" value="" style="rounded=1;whiteSpace=wrap;html=1;fillColor=#e7e9f5;strokeColor=#e7e9f5;arcSize=5;strokeWidth=2;fontFamily=JetBrains Mono;fontSource=https%3A%2F%2Ffonts.googleapis.com%2Fcss%3Ffamily%3DJetBrains%2BMono;fillStyle=auto;" parent="1" vertex="1">
                    <mxGeometry x="380" y="40" width="160" height="160" as="geometry"/>
                </mxCell>
                <mxCell id="40" value="Node 2" style="text;html=1;strokeColor=none;fillColor=none;align=left;verticalAlign=middle;whiteSpace=wrap;rounded=0;fontColor=default;strokeWidth=2;fontFamily=JetBrains Mono;fontSource=https%3A%2F%2Ffonts.googleapis.com%2Fcss%3Ffamily%3DJetBrains%2BMono;fontSize=14;fontStyle=1;" parent="1" vertex="1">
                    <mxGeometry x="390" y="49" width="60" height="20" as="geometry"/>
                </mxCell>
                <mxCell id="74" value="" style="rounded=1;whiteSpace=wrap;html=1;fillColor=#e7e9f5;strokeColor=#e7e9f5;arcSize=5;strokeWidth=2;fontFamily=JetBrains Mono;fontSource=https%3A%2F%2Ffonts.googleapis.com%2Fcss%3Ffamily%3DJetBrains%2BMono;fillStyle=auto;" parent="1" vertex="1">
                    <mxGeometry x="560" y="40" width="160" height="160" as="geometry"/>
                </mxCell>
                <mxCell id="75" value="Node 3" style="text;html=1;strokeColor=none;fillColor=none;align=left;verticalAlign=middle;whiteSpace=wrap;rounded=0;fontColor=default;strokeWidth=2;fontFamily=JetBrains Mono;fontSource=https%3A%2F%2Ffonts.googleapis.com%2Fcss%3Ffamily%3DJetBrains%2BMono;fontSize=14;fontStyle=1;" parent="1" vertex="1">
                    <mxGeometry x="570" y="49" width="60" height="20" as="geometry"/>
                </mxCell>
                <mxCell id="78" style="edgeStyle=none;html=1;exitX=0.5;exitY=0.5;exitDx=0;exitDy=0;exitPerimeter=0;entryX=0;entryY=0.5;entryDx=0;entryDy=0;fontFamily=JetBrains Mono;fontSource=https%3A%2F%2Ffonts.googleapis.com%2Fcss%3Ffamily%3DJetBrains%2BMono;fontSize=14;fontColor=#0066FF;strokeWidth=2;fillColor=#60a917;strokeColor=#2D7600;" parent="1" target="2" edge="1">
                    <mxGeometry relative="1" as="geometry">
                        <mxPoint x="45" y="120" as="sourcePoint"/>
                    </mxGeometry>
                </mxCell>
                <mxCell id="80" value="Create VirtualDisk" style="text;html=1;strokeColor=none;fillColor=none;align=center;verticalAlign=middle;whiteSpace=wrap;rounded=0;strokeWidth=2;fontFamily=JetBrains Mono;fontSource=https%3A%2F%2Ffonts.googleapis.com%2Fcss%3Ffamily%3DJetBrains%2BMono;fontSize=12;fontColor=#0066FF;opacity=30;fontStyle=1" parent="1" vertex="1">
                    <mxGeometry x="100" y="80" width="60" height="30" as="geometry"/>
                </mxCell>
                <mxCell id="81" value="" style="rounded=1;whiteSpace=wrap;html=1;fillColor=#e7e9f5;strokeColor=#e7e9f5;arcSize=5;strokeWidth=2;fontFamily=JetBrains Mono;fontSource=https%3A%2F%2Ffonts.googleapis.com%2Fcss%3Ffamily%3DJetBrains%2BMono;fillStyle=auto;" parent="1" vertex="1">
                    <mxGeometry x="200" y="220" width="160" height="160" as="geometry"/>
                </mxCell>
                <mxCell id="82" value="" style="rounded=1;whiteSpace=wrap;html=1;fillColor=#e7e9f5;strokeColor=#e7e9f5;arcSize=5;strokeWidth=2;fontFamily=JetBrains Mono;fontSource=https%3A%2F%2Ffonts.googleapis.com%2Fcss%3Ffamily%3DJetBrains%2BMono;fillStyle=auto;" parent="1" vertex="1">
                    <mxGeometry x="380" y="220" width="160" height="160" as="geometry"/>
                </mxCell>
                <mxCell id="83" value="" style="rounded=1;whiteSpace=wrap;html=1;fillColor=#e7e9f5;strokeColor=#e7e9f5;arcSize=5;strokeWidth=2;fontFamily=JetBrains Mono;fontSource=https%3A%2F%2Ffonts.googleapis.com%2Fcss%3Ffamily%3DJetBrains%2BMono;fillStyle=auto;" parent="1" vertex="1">
                    <mxGeometry x="560" y="220" width="160" height="160" as="geometry"/>
                </mxCell>
                <mxCell id="84" style="edgeStyle=none;html=1;exitX=0.5;exitY=0.5;exitDx=0;exitDy=0;exitPerimeter=0;entryX=0;entryY=0.5;entryDx=0;entryDy=0;fontFamily=JetBrains Mono;fontSource=https%3A%2F%2Ffonts.googleapis.com%2Fcss%3Ffamily%3DJetBrains%2BMono;fontSize=14;fontColor=#0066FF;strokeWidth=2;fillColor=#60a917;strokeColor=#2D7600;startArrow=none;" parent="1" source="131" target="81" edge="1">
                    <mxGeometry relative="1" as="geometry">
                        <mxPoint x="45" y="300" as="sourcePoint"/>
                    </mxGeometry>
                </mxCell>
                <mxCell id="86" value="Create VirtualMachine" style="text;html=1;strokeColor=none;fillColor=none;align=center;verticalAlign=middle;whiteSpace=wrap;rounded=0;strokeWidth=2;fontFamily=JetBrains Mono;fontSource=https%3A%2F%2Ffonts.googleapis.com%2Fcss%3Ffamily%3DJetBrains%2BMono;fontSize=12;fontColor=#0066FF;opacity=30;fontStyle=1" parent="1" vertex="1">
                    <mxGeometry x="100" y="260" width="60" height="30" as="geometry"/>
                </mxCell>
                <mxCell id="87" value="Node 1" style="text;html=1;strokeColor=none;fillColor=none;align=left;verticalAlign=middle;whiteSpace=wrap;rounded=0;fontColor=default;strokeWidth=2;fontFamily=JetBrains Mono;fontSource=https%3A%2F%2Ffonts.googleapis.com%2Fcss%3Ffamily%3DJetBrains%2BMono;fontSize=14;fontStyle=1;" parent="1" vertex="1">
                    <mxGeometry x="210" y="230" width="60" height="20" as="geometry"/>
                </mxCell>
                <mxCell id="88" value="Node 2" style="text;html=1;strokeColor=none;fillColor=none;align=left;verticalAlign=middle;whiteSpace=wrap;rounded=0;fontColor=default;strokeWidth=2;fontFamily=JetBrains Mono;fontSource=https%3A%2F%2Ffonts.googleapis.com%2Fcss%3Ffamily%3DJetBrains%2BMono;fontSize=14;fontStyle=1;" parent="1" vertex="1">
                    <mxGeometry x="390" y="230" width="60" height="20" as="geometry"/>
                </mxCell>
                <mxCell id="89" value="Node 3" style="text;html=1;strokeColor=none;fillColor=none;align=left;verticalAlign=middle;whiteSpace=wrap;rounded=0;fontColor=default;strokeWidth=2;fontFamily=JetBrains Mono;fontSource=https%3A%2F%2Ffonts.googleapis.com%2Fcss%3Ffamily%3DJetBrains%2BMono;fontSize=14;fontStyle=1;" parent="1" vertex="1">
                    <mxGeometry x="570" y="230" width="60" height="20" as="geometry"/>
                </mxCell>
                <mxCell id="140" style="edgeStyle=none;html=1;exitX=0.5;exitY=1;exitDx=0;exitDy=0;strokeWidth=2;" parent="1" source="90" target="135" edge="1">
                    <mxGeometry relative="1" as="geometry"/>
                </mxCell>
                <mxCell id="90" value="VirtualMachine" style="rounded=1;whiteSpace=wrap;html=1;strokeColor=#5e6697;strokeWidth=2;fontFamily=JetBrains Mono;fontSource=https%3A%2F%2Ffonts.googleapis.com%2Fcss%3Ffamily%3DJetBrains%2BMono;fontSize=12;fontColor=#f5f5fb;fillColor=#5e6697;fontStyle=1" parent="1" vertex="1">
                    <mxGeometry x="220" y="260" width="120" height="30" as="geometry"/>
                </mxCell>
                <mxCell id="108" value="Step 1" style="text;html=1;strokeColor=none;fillColor=none;align=left;verticalAlign=middle;whiteSpace=wrap;rounded=0;fontColor=#0066ff;strokeWidth=2;fontFamily=JetBrains Mono;fontSource=https%3A%2F%2Ffonts.googleapis.com%2Fcss%3Ffamily%3DJetBrains%2BMono;fontSize=14;fontStyle=1" parent="1" vertex="1">
                    <mxGeometry x="30" y="40" width="60" height="20" as="geometry"/>
                </mxCell>
                <mxCell id="109" value="Step 2" style="text;html=1;strokeColor=none;fillColor=none;align=left;verticalAlign=middle;whiteSpace=wrap;rounded=0;fontColor=#0066ff;strokeWidth=2;fontFamily=JetBrains Mono;fontSource=https%3A%2F%2Ffonts.googleapis.com%2Fcss%3Ffamily%3DJetBrains%2BMono;fontSize=14;fontStyle=1" parent="1" vertex="1">
                    <mxGeometry x="30" y="220" width="60" height="20" as="geometry"/>
                </mxCell>
                <mxCell id="111" value="Step 2" style="text;html=1;strokeColor=none;fillColor=none;align=left;verticalAlign=middle;whiteSpace=wrap;rounded=0;fontColor=#0066ff;strokeWidth=2;fontFamily=JetBrains Mono;fontSource=https%3A%2F%2Ffonts.googleapis.com%2Fcss%3Ffamily%3DJetBrains%2BMono;fontSize=14;fontStyle=1" parent="1" vertex="1">
                    <mxGeometry x="30" y="220" width="60" height="20" as="geometry"/>
                </mxCell>
                <mxCell id="120" value="replica 1" style="text;html=1;strokeColor=none;fillColor=none;align=center;verticalAlign=middle;whiteSpace=wrap;rounded=0;strokeWidth=2;fontFamily=JetBrains Mono;fontSource=https%3A%2F%2Ffonts.googleapis.com%2Fcss%3Ffamily%3DJetBrains%2BMono;fontSize=10;fontColor=#0066FF;opacity=30;fontStyle=1" parent="1" vertex="1">
                    <mxGeometry x="235" y="170" width="90" height="30" as="geometry"/>
                </mxCell>
                <mxCell id="121" value="replica 2" style="text;html=1;strokeColor=none;fillColor=none;align=center;verticalAlign=middle;whiteSpace=wrap;rounded=0;strokeWidth=2;fontFamily=JetBrains Mono;fontSource=https%3A%2F%2Ffonts.googleapis.com%2Fcss%3Ffamily%3DJetBrains%2BMono;fontSize=10;fontColor=#0066FF;opacity=30;fontStyle=1" parent="1" vertex="1">
                    <mxGeometry x="415" y="170" width="90" height="30" as="geometry"/>
                </mxCell>
                <mxCell id="122" value="replica 3" style="text;html=1;strokeColor=none;fillColor=none;align=center;verticalAlign=middle;whiteSpace=wrap;rounded=0;strokeWidth=2;fontFamily=JetBrains Mono;fontSource=https%3A%2F%2Ffonts.googleapis.com%2Fcss%3Ffamily%3DJetBrains%2BMono;fontSize=10;fontColor=#0066FF;opacity=30;fontStyle=1" parent="1" vertex="1">
                    <mxGeometry x="595" y="170" width="90" height="30" as="geometry"/>
                </mxCell>
                <mxCell id="123" value="replica 1" style="text;html=1;strokeColor=none;fillColor=none;align=center;verticalAlign=middle;whiteSpace=wrap;rounded=0;strokeWidth=2;fontFamily=JetBrains Mono;fontSource=https%3A%2F%2Ffonts.googleapis.com%2Fcss%3Ffamily%3DJetBrains%2BMono;fontSize=10;fontColor=#0066FF;opacity=30;fontStyle=1" parent="1" vertex="1">
                    <mxGeometry x="235" y="350" width="90" height="30" as="geometry"/>
                </mxCell>
                <mxCell id="124" value="replica 2" style="text;html=1;strokeColor=none;fillColor=none;align=center;verticalAlign=middle;whiteSpace=wrap;rounded=0;strokeWidth=2;fontFamily=JetBrains Mono;fontSource=https%3A%2F%2Ffonts.googleapis.com%2Fcss%3Ffamily%3DJetBrains%2BMono;fontSize=10;fontColor=#0066FF;opacity=30;fontStyle=1" parent="1" vertex="1">
                    <mxGeometry x="415" y="350" width="90" height="30" as="geometry"/>
                </mxCell>
                <mxCell id="125" value="replica 3" style="text;html=1;strokeColor=none;fillColor=none;align=center;verticalAlign=middle;whiteSpace=wrap;rounded=0;strokeWidth=2;fontFamily=JetBrains Mono;fontSource=https%3A%2F%2Ffonts.googleapis.com%2Fcss%3Ffamily%3DJetBrains%2BMono;fontSize=10;fontColor=#0066FF;opacity=30;fontStyle=1" parent="1" vertex="1">
                    <mxGeometry x="595" y="350" width="90" height="30" as="geometry"/>
                </mxCell>
                <mxCell id="130" value="&lt;font style=&quot;font-size: 42px;&quot;&gt;🧑‍💻&lt;/font&gt;" style="text;html=1;align=center;verticalAlign=middle;resizable=0;points=[];autosize=1;strokeColor=none;fillColor=none;fontStyle=1" parent="1" vertex="1">
                    <mxGeometry x="5" y="90" width="80" height="60" as="geometry"/>
                </mxCell>
                <mxCell id="131" value="&lt;font style=&quot;font-size: 42px;&quot;&gt;🧑‍💻&lt;/font&gt;" style="text;html=1;align=center;verticalAlign=middle;resizable=0;points=[];autosize=1;strokeColor=none;fillColor=none;fontStyle=1" parent="1" vertex="1">
                    <mxGeometry x="5" y="270" width="80" height="60" as="geometry"/>
                </mxCell>
                <mxCell id="132" value="" style="sketch=0;pointerEvents=1;shadow=0;dashed=0;html=1;strokeColor=#969dc4;fillColor=#969dc4;labelPosition=center;verticalLabelPosition=bottom;verticalAlign=top;outlineConnect=0;align=center;shape=mxgraph.office.devices.hard_disk;rotation=90;fontColor=#f5f5fb;" parent="1" vertex="1">
                    <mxGeometry x="260" y="130" width="40" height="54" as="geometry"/>
                </mxCell>
                <mxCell id="133" value="" style="sketch=0;pointerEvents=1;shadow=0;dashed=0;html=1;strokeColor=#969dc4;fillColor=#969dc4;labelPosition=center;verticalLabelPosition=bottom;verticalAlign=top;outlineConnect=0;align=center;shape=mxgraph.office.devices.hard_disk;rotation=90;fontColor=#f5f5fb;" parent="1" vertex="1">
                    <mxGeometry x="440" y="130" width="40" height="54" as="geometry"/>
                </mxCell>
                <mxCell id="134" value="" style="sketch=0;pointerEvents=1;shadow=0;dashed=0;html=1;strokeColor=#969dc4;fillColor=#969dc4;labelPosition=center;verticalLabelPosition=bottom;verticalAlign=top;outlineConnect=0;align=center;shape=mxgraph.office.devices.hard_disk;rotation=90;fontColor=#f5f5fb;" parent="1" vertex="1">
                    <mxGeometry x="620" y="130" width="40" height="54" as="geometry"/>
                </mxCell>
                <mxCell id="135" value="" style="sketch=0;pointerEvents=1;shadow=0;dashed=0;html=1;strokeColor=#5e6697;fillColor=#5e6697;labelPosition=center;verticalLabelPosition=bottom;verticalAlign=top;outlineConnect=0;align=center;shape=mxgraph.office.devices.hard_disk;rotation=90;fontColor=#f5f5fb;" parent="1" vertex="1">
                    <mxGeometry x="260" y="310" width="40" height="54" as="geometry"/>
                </mxCell>
                <mxCell id="136" value="" style="sketch=0;pointerEvents=1;shadow=0;dashed=0;html=1;strokeColor=#969dc4;fillColor=#969dc4;labelPosition=center;verticalLabelPosition=bottom;verticalAlign=top;outlineConnect=0;align=center;shape=mxgraph.office.devices.hard_disk;rotation=90;fontColor=#f5f5fb;" parent="1" vertex="1">
                    <mxGeometry x="440" y="310" width="40" height="54" as="geometry"/>
                </mxCell>
                <mxCell id="137" value="" style="sketch=0;pointerEvents=1;shadow=0;dashed=0;html=1;strokeColor=#969dc4;fillColor=#969dc4;labelPosition=center;verticalLabelPosition=bottom;verticalAlign=top;outlineConnect=0;align=center;shape=mxgraph.office.devices.hard_disk;rotation=90;fontColor=#f5f5fb;" parent="1" vertex="1">
                    <mxGeometry x="620" y="310" width="40" height="54" as="geometry"/>
                </mxCell>
            </root>
        </mxGraphModel>
    </diagram>
</mxfile>
